<?xml version="1.0" standalone="no"?><!DOCTYPE svg PUBLIC "-//W3C//DTD SVG 1.1//EN" "http://www.w3.org/Graphics/SVG/1.1/DTD/svg11.dtd"><svg class="icon" height="512" viewBox="0 0 1024 1024" version="1.1" xmlns="http://www.w3.org/2000/svg"><path d="M878.962232 868.542235l-359.795388 154.995388-363.956781-144.757039L0.214675 518.985196l144.757039-363.956781L504.767102 0.033027l363.956781 144.757039 154.995388 359.795388-144.757039 363.956781z m-18.825351-379.149169c-5.119174 0-64.798839 1.750427-131.777455 4.689824a216.986938 216.986938 0 0 0-51.786228-123.718884 6635.308628 6635.308628 0 0 0 96.669827-89.899307 21.698694 21.698694 0 0 0 0-30.748073 21.698694 21.698694 0 0 0-30.748073 0l-89.767198 96.735882a216.986938 216.986938 0 0 0-124.049154-51.191744c2.939397-66.978616 4.722851-126.658281 4.722851-131.777455a21.830801 21.830801 0 0 0-43.661603 0c0 5.119174 1.783454 64.798839 4.590744 131.777455a216.42548 216.42548 0 0 0-124.049154 51.522013A7562.341558 7562.341558 0 0 0 280.646347 250.509273a21.698694 21.698694 0 0 0-30.748073 0 21.698694 21.698694 0 0 0 0 30.748073c3.665989 3.533882 46.997323 44.421222 96.405612 89.436929a216.458507 216.458507 0 0 0-51.522012 124.313369 6679.168392 6679.168392 0 0 0-131.116917-4.656797 21.830801 21.830801 0 0 0 0 43.661603c5.086147 0 64.402516-1.783454 131.116917-4.656798a217.449315 217.449315 0 0 0 51.522012 124.313369 6712.195323 6712.195323 0 0 0-95.943234 89.337849 21.63264 21.63264 0 0 0 0 30.715046 21.63264 21.63264 0 0 0 30.715045 0c3.632962-3.599935 44.256088-46.799161 89.337849-96.009289a216.788776 216.788776 0 0 0 124.577584 51.191743 6700.17352 6700.17352 0 0 0-4.656797 131.050863 21.797775 21.797775 0 1 0 43.661603 0c0-5.086147-1.7174-64.46857-4.656797-131.116917a216.590614 216.590614 0 0 0 124.115207-52.050443 7315.101951 7315.101951 0 0 0 89.635091 96.273504 21.698694 21.698694 0 0 0 30.748073 0 21.63264 21.63264 0 0 0 0-30.715046c-3.599935-3.599935-46.997323-44.586357-96.339558-89.734172a216.392453 216.392453 0 0 0 50.927528-124.313368c66.912562 2.939397 126.592227 4.722851 131.711401 4.722851a21.830801 21.830801 0 0 0 0-43.628576z m-296.680922 62.123657a64.732785 64.732785 0 0 0 13.111691-32.267312c31.078342 2.972424 75.235349 5.515498 119.491437 7.695275a184.554491 184.554491 0 0 1-42.472633 103.803645 3025.795323 3025.795323 0 0 0-90.130495-79.231608z m-0.561458-80.222416a2784.33543 2784.33543 0 0 0 89.767199-78.835284 184.45541 184.45541 0 0 1 43.331333 103.341267 2897.1224 2897.1224 0 0 0-119.491436 7.662248 65.624512 65.624512 0 0 0-13.607096-32.168231z m-43.529495-24.109659c2.939397-30.946234 5.515498-75.103241 7.662248-119.35933a184.257249 184.257249 0 0 1 103.605483 42.736849 3089.00887 3089.00887 0 0 0-79.033447 89.734172 63.345654 63.345654 0 0 0-32.234284-13.111691z m36.626866 29.823318l11.658507 27.313273c0.594485 4.656797 0.660539 9.313595 0.066054 14.036445l-11.19613 27.511434-9.775971 10.040187-27.313272 11.592453c-4.656797 0.594485-9.313595 0.660539-14.036446 0.066054l-27.511434-11.229157-9.974133-9.742945-11.592453-27.346299a55.154975 55.154975 0 0 1-0.066054-14.003418l11.163103-27.544461 9.742945-9.941106 27.346299-11.592453c4.62377-0.594485 9.280568-0.660539 14.003418-0.066054l27.544461 11.130076 9.941106 9.775971z m-163.615417-106.181583a184.224222 184.224222 0 0 1 103.605483-43.001065c2.146751 44.322142 4.722851 88.479149 7.662248 119.425383a65.030027 65.030027 0 0 0-32.102177 13.607096 2981.902532 2981.902532 0 0 0-79.165554-90.031414z m54.956814 133.560909a2903.232382 2903.232382 0 0 0-119.986841-7.728302 184.191195 184.191195 0 0 1 43.001064-103.803644 3121.573424 3121.573424 0 0 0 90.097468 79.231608 65.195162 65.195162 0 0 0-13.111691 32.300338z m13.77223 47.822997c-24.10966 20.01432-57.46686 49.573424-90.427737 79.495823a183.695791 183.695791 0 0 1-43.331334-103.869699 2907.261667 2907.261667 0 0 0 120.052895-7.728301c1.519239 11.460345 6.043928 22.49134 13.706176 32.102177z m43.529495 24.142686c-2.972424 31.177423-5.581551 75.664699-7.761328 120.118949a184.587518 184.587518 0 0 1-104.100887-42.736849c29.9224-33.026931 59.481503-66.384132 79.594904-90.493791 9.57781 7.464086 20.707886 11.790614 32.267311 13.111691z m126.988551 76.5234a184.02606 184.02606 0 0 1-103.605483 43.595549 2903.628705 2903.628705 0 0 0-7.728302-120.118949c11.460345-1.519239 22.458313-6.043928 32.102177-13.640122a2958.519465 2958.519465 0 0 0 79.231608 90.163522z" fill="#316CE6" /></svg>